<svg xmlns="http://www.w3.org/2000/svg" viewBox="0 0 917.8 607.81"><defs><style>.cls-1{fill:#3c5caa;}.cls-2{fill:#ec2127;}.cls-3{fill:#fff;}.cls-4,.cls-5{font-size:109px;font-family:FuturaMaxiCGBold, Futura Maxi CG Bold;}.cls-4,.cls-5,.cls-6{fill:#231f20;}.cls-5{letter-spacing:0.01em;}.cls-6{font-size:39.08px;font-family:Montserrat-BoldItalic, Montserrat;font-weight:700;font-style:italic;}.cls-7{letter-spacing:0em;}.cls-8{letter-spacing:-0.01em;}.cls-9{letter-spacing:0em;}.cls-10{letter-spacing:0.01em;}.cls-11{letter-spacing:0.02em;}.cls-12{letter-spacing:0.01em;}.cls-13{letter-spacing:0.01em;}.cls-14{letter-spacing:0.01em;}.cls-15{letter-spacing:0.02em;}.cls-16{letter-spacing:0.01em;}.cls-17{letter-spacing:-0.01em;}.cls-18{letter-spacing:0.01em;}.cls-19{letter-spacing:0em;}.cls-20{letter-spacing:0.02em;}.cls-21{letter-spacing:0em;}.cls-22{letter-spacing:0em;}</style></defs><g id="Layer_2" data-name="Layer 2"><path class="cls-1" d="M540,265.2c42.54-5.32,78.38-8,104.92-9.51,48-2.69,76-1.92,132-.38a424.87,424.87,0,0,1,89.44,14.17,105.25,105.25,0,0,1,37.82,19.45c5.85,4.75,10.52,8.63,13.07,15,7.51,18.62-10.67,40-12.87,42.57a201.2,201.2,0,0,0,56.08-34.7c16.36-14.37,27-24,26.61-36.59-.7-20.47-30.31-34.3-45.1-41.21-20.12-9.4-39.55-13.16-70.39-15.35a629.55,629.55,0,0,0-93.62.48,1043.14,1043.14,0,0,0-139.72,20C612.31,244.62,578.72,252.86,540,265.2Z" transform="translate(-77.74 -217.1)"/></g><g id="Layer_3" data-name="Layer 3"><path d="M436.76,296.56H516.6V456.72C515.45,467,511,493.89,489,514.23c-16.64,15.42-35.32,19.64-54.65,23.76-28.44,6.06-52.15,4.47-73.19,2-31.24-3.64-75.8-11.43-129.27-29.57V484.76c14.14.55,87.3,3.2,144.48-2.37,12.6-1.23,31.33-3.54,46.59-17.57a65.27,65.27,0,0,0,17.09-26.63Z" transform="translate(-77.74 -217.1)"/></g><g id="Layer_4" data-name="Layer 4"><path d="M522.78,306.07v77a87.24,87.24,0,0,1,19.61-14.79c15.56-8.58,30-10.18,48.83-11.23,35.51-2,53.26-3,69.86-.36,29.23,4.63,68.39,10.83,80.2,38.85,6.62,15.71,1.66,31.2.35,35.29-9.46,29.58-41.26,40.5-52,44.2-11.51,4-22.64,4.54-44.91,5.7-15.31.8-35.86,1.78-62.73-1.78a302.39,302.39,0,0,1-61.13-14.7,81.58,81.58,0,0,1-29.76,53.55,417.31,417.31,0,0,0,67,17.35A414.08,414.08,0,0,0,658.94,540c29.51-2.19,53.47-3.93,82.69-16.5,14.92-6.42,32.59-14.24,49.55-32.08a123,123,0,0,0,29.58-118,141.17,141.17,0,0,0-36-47.77c-28.82-24.76-59.94-30.93-73.42-32.79a366.59,366.59,0,0,0-188.56,13.19Z" transform="translate(-77.74 -217.1)"/></g><g id="Layer_5" data-name="Layer 5"><path class="cls-2" d="M208.41,445.44c-17.34,11.29-28.11,28.93-26.38,46.33,1.8,18.12,16.51,29.48,24.95,36,11.39,8.8,22,12.21,44.55,18.18,32.43,8.58,48.65,12.86,67.37,16,36.48,6.19,64.54,7.54,87,8.55,20.67.94,47.56,1.41,79.13,0,5-.14,8.69,4.2,8.2,8.2s-4.87,7.18-9.63,6.06c-12-1.91-20.6,2.59-21.38,7.37s6.22,9.66,7,10.19c2.23,1.37,5,3.5,4.89,6-.24,5.62-15.28,9.22-21.62,10.69-50.05,11.59-135.69,5.7-135.69,5.7-60.42-4.15-61.24-4-74.49-5.34-29.39-2.89-60.72-6.88-97.31-17.47-27.6-8-43.08-15.35-53.11-30.3-2.59-3.86-9.88-15.05-8.91-29.42s9.73-25.5,22.1-36.87C138.52,474.53,185.29,454.42,208.41,445.44Z" transform="translate(-77.74 -217.1)"/></g><g id="Layer_6" data-name="Layer 6"><ellipse class="cls-3" cx="211.52" cy="359.68" rx="5.64" ry="4.34"/><ellipse class="cls-3" cx="188.47" cy="384.69" rx="4.57" ry="3.8"/><ellipse class="cls-3" cx="231.24" cy="391.52" rx="3.86" ry="3.03"/><ellipse class="cls-3" cx="265.34" cy="364.02" rx="3.98" ry="3.56"/><ellipse class="cls-3" cx="281.26" cy="394.43" rx="4.81" ry="4.16"/><ellipse class="cls-3" cx="304.97" cy="374.83" rx="6.42" ry="5.47"/><ellipse class="cls-3" cx="337.28" cy="370.02" rx="9.74" ry="8.73"/><ellipse class="cls-3" cx="323.2" cy="393.48" rx="9.21" ry="7.96"/><ellipse class="cls-3" cx="357.66" cy="389.39" rx="8.61" ry="6.95"/><ellipse class="cls-2" cx="432.63" cy="361.82" rx="5.29" ry="4.46"/><ellipse class="cls-2" cx="428.35" cy="386.24" rx="11.82" ry="10.1"/><ellipse class="cls-2" cx="454.02" cy="393.9" rx="3.98" ry="3.62"/><ellipse class="cls-2" cx="465.03" cy="366.45" rx="12.56" ry="10.4"/><ellipse class="cls-2" cx="483.3" cy="386.89" rx="5.11" ry="4.1"/><ellipse class="cls-2" cx="495.24" cy="350.24" rx="5.29" ry="4.28"/><ellipse class="cls-2" cx="527.44" cy="348.57" rx="4.93" ry="3.92"/><ellipse class="cls-2" cx="509.32" cy="373.94" rx="13.19" ry="10.63"/><ellipse class="cls-2" cx="540.45" cy="373.7" rx="6.06" ry="4.93"/><ellipse class="cls-2" cx="557.03" cy="352.49" rx="12.53" ry="10.75"/><ellipse class="cls-2" cx="576.51" cy="369.1" rx="5.41" ry="4.6"/><ellipse class="cls-2" cx="584.77" cy="341.21" rx="4.99" ry="4.4"/><ellipse class="cls-2" cx="617.08" cy="335.21" rx="5.35" ry="4.34"/><ellipse class="cls-2" cx="604.91" cy="355.35" rx="14.08" ry="12.59"/><ellipse class="cls-2" cx="633.12" cy="358.91" rx="5.94" ry="5.11"/><ellipse class="cls-2" cx="646.97" cy="337.64" rx="12.42" ry="10.34"/><ellipse class="cls-2" cx="672.75" cy="326.59" rx="5.41" ry="4.28"/><circle class="cls-2" cx="672.75" cy="347.98" r="4.6"/><ellipse class="cls-2" cx="698.59" cy="333.29" rx="10.4" ry="9.25"/><ellipse class="cls-2" cx="717.72" cy="320.39" rx="4.99" ry="4.66"/><ellipse class="cls-2" cx="725.29" cy="333.99" rx="4.9" ry="4.66"/><ellipse class="cls-2" cx="742.8" cy="321.32" rx="7.8" ry="6.55"/><ellipse class="cls-2" cx="763.07" cy="309.4" rx="3.07" ry="2.92"/><ellipse class="cls-2" cx="760.62" cy="319.41" rx="5.12" ry="4.37"/><ellipse class="cls-2" cx="789.45" cy="309.4" rx="9" ry="7.78"/><ellipse class="cls-2" cx="810.27" cy="298.94" rx="3.39" ry="3"/><ellipse class="cls-2" cx="809.98" cy="309.71" rx="3.68" ry="3.22"/><ellipse class="cls-2" cx="828.27" cy="298.94" rx="8.5" ry="7.84"/><ellipse class="cls-2" cx="842.23" cy="289.88" rx="4.16" ry="3.33"/><circle class="cls-2" cx="857.62" cy="296.12" r="3.62"/><ellipse class="cls-2" cx="874.19" cy="285.1" rx="7.01" ry="6"/><ellipse class="cls-2" cx="895.64" cy="275.92" rx="6.12" ry="5.29"/><ellipse class="cls-2" cx="913.76" cy="271.64" rx="4.04" ry="3.62"/></g><g id="Layer_7" data-name="Layer 7"><text class="cls-4" transform="translate(2.28 554.33)">JO</text><text class="cls-5" transform="translate(198 555.39)">COMPUTER</text></g><g id="Layer_8" data-name="Layer 8"><text class="cls-6" transform="translate(211.52 597.42) scale(0.81 1)"><tspan class="cls-7">E</tspan><tspan class="cls-8" x="26.34" y="0">x</tspan><tspan class="cls-9" x="49.32" y="0">c</tspan><tspan class="cls-10" x="72.54" y="0">elle</tspan><tspan class="cls-11" x="146.72" y="0">n</tspan><tspan class="cls-9" x="174.36" y="0">c</tspan><tspan class="cls-12" x="197.57" y="0">e, </tspan><tspan class="cls-13" x="244.59" y="0">A</tspan><tspan class="cls-14" x="274.73" y="0">c</tspan><tspan class="cls-10" x="298.06" y="0">hi</tspan><tspan x="337.57" y="0">e</tspan><tspan class="cls-10" x="362.12" y="0">vi</tspan><tspan class="cls-15" x="398" y="0">n</tspan><tspan class="cls-16" x="425.63" y="0">g, M</tspan><tspan class="cls-17" x="513.18" y="0">o</tspan><tspan class="cls-18" x="538.54" y="0">vi</tspan><tspan class="cls-15" x="574.42" y="0">n</tspan><tspan class="cls-10" x="602.06" y="0">g </tspan><tspan class="cls-19" x="641.26" y="0">F</tspan><tspan class="cls-10" x="666.08" y="0">o</tspan><tspan class="cls-20" x="692.03" y="0">r</tspan><tspan class="cls-21" x="709.85" y="0">w</tspan><tspan class="cls-10" x="746.44" y="0">a</tspan><tspan class="cls-22" x="773.79" y="0">r</tspan><tspan class="cls-10" x="790.68" y="0">d</tspan></text></g></svg>