<svg xmlns="http://www.w3.org/2000/svg" viewBox="0 0 2130.8 543.21"><defs><style>.cls-1{fill:#3c5caa;}.cls-2{fill:#ec2127;}.cls-3{font-size:239.3px;font-family:Poppins-ExtraBold, Poppins;font-weight:800;letter-spacing:0.01em;}.cls-3,.cls-4{fill:#231f20;}.cls-4{font-size:79.89px;font-family:Poppins-SemiBoldItalic, Poppins;font-weight:600;font-style:italic;letter-spacing:0.01em;}</style></defs><g id="Layer_2" data-name="Layer 2"><path class="cls-1" d="M369.43,151.2c33.44-4.18,61.62-6.31,82.48-7.48,37.75-2.11,59.76-1.5,103.79-.29A333.88,333.88,0,0,1,626,154.56a82.68,82.68,0,0,1,29.73,15.29c4.6,3.74,8.27,6.79,10.28,11.77,5.91,14.64-8.39,31.47-10.12,33.46A158.08,158.08,0,0,0,700,187.81c12.87-11.3,21.26-18.88,20.92-28.77-.55-16.09-23.82-27-35.45-32.39-15.82-7.39-31.09-10.34-55.33-12.07a495.83,495.83,0,0,0-73.6.38,819.2,819.2,0,0,0-109.83,15.69C426.27,135,399.87,141.5,369.43,151.2Z"/></g><g id="Layer_3" data-name="Layer 3"><path d="M288.28,175.85H351v125.9c-.91,8.06-4.42,29.22-21.67,45.21-13.08,12.12-27.76,15.44-43,18.68-22.36,4.76-41,3.51-57.53,1.58A494.08,494.08,0,0,1,127.26,344V323.8c11.12.43,68.62,2.51,113.57-1.87,9.91-1,24.63-2.78,36.63-13.81a51.14,51.14,0,0,0,13.43-20.94Z"/></g><g id="Layer_4" data-name="Layer 4"><path d="M355.9,183.33v60.52a68.33,68.33,0,0,1,15.41-11.63c12.23-6.74,23.62-8,38.38-8.83,27.92-1.56,41.87-2.34,54.92-.28,23,3.64,53.76,8.52,63,30.54,5.21,12.35,1.31,24.52.28,27.74-7.43,23.25-32.43,31.84-40.9,34.75-9.06,3.1-17.81,3.56-35.31,4.48-12,.63-28.19,1.4-49.31-1.4a237.72,237.72,0,0,1-48.05-11.56,64.13,64.13,0,0,1-23.4,42.1,328.72,328.72,0,0,0,52.68,13.64,325.56,325.56,0,0,0,79.29,3.82c23.2-1.73,42-3.1,65-13,11.73-5,25.62-11.18,39-25.21a96.67,96.67,0,0,0,23.26-92.75,110.93,110.93,0,0,0-28.3-37.54A112.46,112.46,0,0,0,504.12,173,288.24,288.24,0,0,0,355.9,183.33Z"/></g><g id="Layer_5" data-name="Layer 5"><path class="cls-2" d="M326.2,391.22c-24.82,1.11-46,.74-62.21,0-17.63-.79-39.69-1.85-68.36-6.72-14.72-2.5-27.47-5.86-53-12.61-17.75-4.69-26.07-7.37-35-14.29C101,352.48,89.45,343.55,88,329.3c-1.36-13.67,7.11-27.54,20.74-36.42C90.6,299.94,53.83,315.75,27.51,340c-9.72,8.93-16.61,17.72-17.37,29s5,20.09,7,23.13C25,403.82,37.2,409.6,58.89,415.88c28.77,8.33,53.39,11.47,76.5,13.74,10.41,1,11.06.93,58.55,4.2,0,0,67.32,4.63,106.67-4.49,5-1.15,16.81-4,17-8.4.09-1.94-2.09-3.61-3.84-4.69-.61-.42-6.11-4.26-5.49-8s7.35-7.3,16.8-5.8c3.74.88,7.19-1.69,7.57-4.76S330.15,391.11,326.2,391.22Zm-172,27.56c-2,0-3.6-1.34-3.6-3s1.61-3,3.6-3,3.59,1.34,3.59,3S156.19,418.78,154.21,418.78Zm18.12-19.24c-2.46,0-4.45-1.52-4.45-3.41s2-3.4,4.45-3.4,4.43,1.52,4.43,3.4S174.77,399.54,172.33,399.54Zm15.5,24c-1.68,0-3-1.06-3-2.38s1.36-2.38,3-2.38,3,1.07,3,2.38S189.5,423.54,187.83,423.54Zm26.8-21.2a2.82,2.82,0,1,1,3.13-2.8A3,3,0,0,1,214.63,402.34Zm12.52,24.38a3.3,3.3,0,1,1,3.78-3.27A3.56,3.56,0,0,1,227.15,426.72Zm18.63-14.38c-2.78,0-5-1.93-5-4.3s2.26-4.29,5-4.29,5.05,1.92,5.05,4.29S248.57,412.34,245.78,412.34ZM260.12,429c-4,0-7.24-2.8-7.24-6.26s3.24-6.26,7.24-6.26,7.24,2.81,7.24,6.26S264.12,429,260.12,429Zm11.07-17.84c-4.23,0-7.66-3.07-7.66-6.86s3.43-6.86,7.66-6.86,7.65,3.07,7.65,6.86S275.41,411.12,271.19,411.12Zm16,13.83c-3.75,0-6.78-2.45-6.78-5.47s3-5.47,6.78-5.47,6.76,2.46,6.76,5.47S290.94,425,287.21,425Z"/></g><g id="Layer_6" data-name="Layer 6"><ellipse class="cls-2" cx="346.14" cy="397.81" rx="4.16" ry="3.5"/><ellipse class="cls-2" cx="342.77" cy="417.01" rx="9.29" ry="7.94"/><ellipse class="cls-2" cx="362.95" cy="423.03" rx="3.13" ry="2.85"/><ellipse class="cls-2" cx="371.61" cy="401.46" rx="9.88" ry="8.17"/><ellipse class="cls-2" cx="385.97" cy="417.52" rx="4.02" ry="3.22"/><ellipse class="cls-2" cx="395.36" cy="388.71" rx="4.16" ry="3.36"/><ellipse class="cls-2" cx="420.67" cy="387.4" rx="3.88" ry="3.08"/><ellipse class="cls-2" cx="406.42" cy="407.34" rx="10.37" ry="8.36"/><ellipse class="cls-2" cx="430.89" cy="407.15" rx="4.76" ry="3.88"/><ellipse class="cls-2" cx="443.92" cy="390.48" rx="9.85" ry="8.45"/><ellipse class="cls-2" cx="459.24" cy="403.53" rx="4.25" ry="3.62"/><ellipse class="cls-2" cx="465.73" cy="381.61" rx="3.92" ry="3.46"/><ellipse class="cls-2" cx="491.14" cy="376.89" rx="4.2" ry="3.41"/><ellipse class="cls-2" cx="481.56" cy="392.72" rx="11.07" ry="9.9"/><ellipse class="cls-2" cx="503.74" cy="395.52" rx="4.67" ry="4.02"/><ellipse class="cls-2" cx="514.63" cy="378.81" rx="9.76" ry="8.13"/><ellipse class="cls-2" cx="534.89" cy="370.12" rx="4.25" ry="3.36"/><circle class="cls-2" cx="534.89" cy="386.93" r="3.62"/><ellipse class="cls-2" cx="555.21" cy="375.39" rx="8.17" ry="7.27"/><ellipse class="cls-2" cx="570.24" cy="365.24" rx="3.92" ry="3.67"/><ellipse class="cls-2" cx="576.2" cy="375.93" rx="3.85" ry="3.67"/><ellipse class="cls-2" cx="589.96" cy="365.98" rx="6.13" ry="5.15"/><ellipse class="cls-2" cx="605.9" cy="356.61" rx="2.42" ry="2.29"/><ellipse class="cls-2" cx="603.97" cy="364.47" rx="4.03" ry="3.43"/><ellipse class="cls-2" cx="626.63" cy="356.61" rx="7.07" ry="6.12"/><ellipse class="cls-2" cx="643" cy="348.38" rx="2.66" ry="2.36"/><ellipse class="cls-2" cx="642.77" cy="356.85" rx="2.9" ry="2.53"/><ellipse class="cls-2" cx="657.15" cy="348.38" rx="6.68" ry="6.16"/><ellipse class="cls-2" cx="668.12" cy="341.26" rx="3.27" ry="2.62"/><circle class="cls-2" cx="680.22" cy="346.16" r="2.85"/><ellipse class="cls-2" cx="693.25" cy="337.5" rx="5.51" ry="4.72"/><ellipse class="cls-2" cx="710.11" cy="330.29" rx="4.81" ry="4.16"/><ellipse class="cls-2" cx="724.35" cy="326.92" rx="3.18" ry="2.85"/></g><g id="Layer_7" data-name="Layer 7"><text class="cls-3" transform="translate(759.32 312.56)">COMPUTER</text></g><g id="Layer_8" data-name="Layer 8"><text class="cls-4" transform="translate(823.25 403.95) scale(0.81 1)">Excellence, Achieving, Moving Forward</text></g></svg>