<svg xmlns="http://www.w3.org/2000/svg" viewBox="0 0 2021.34 409.12"><defs><style>.cls-1{fill:#3c5caa;}.cls-2{fill:#ec2127;}.cls-3,.cls-4{font-size:147px;font-family:Poppins-ExtraBold, Poppins;font-weight:800;}.cls-3,.cls-4,.cls-5{fill:#231f20;}.cls-4{letter-spacing:0.01em;}.cls-5{font-size:49.08px;font-family:Poppins-SemiBoldItalic, Poppins;font-weight:600;font-style:italic;letter-spacing:0.01em;}</style></defs><g id="Layer_2" data-name="Layer 2"><path class="cls-1" d="M540,113.51c42.54-5.31,78.38-8,104.92-9.5,48-2.69,76-1.92,132-.38a425.21,425.21,0,0,1,89.44,14.16,105.35,105.35,0,0,1,37.82,19.46c5.85,4.75,10.52,8.63,13.07,15,7.51,18.62-10.67,40-12.87,42.56a201.13,201.13,0,0,0,56.08-34.69c16.36-14.37,27-24,26.61-36.59C986.4,103,956.79,89.19,942,82.28c-20.12-9.4-39.55-13.15-70.39-15.34a628.17,628.17,0,0,0-93.62.48,1041.44,1041.44,0,0,0-139.72,20C612.31,92.94,578.72,101.18,540,113.51Z" transform="translate(-82.85 -65.42)"/></g><g id="Layer_3" data-name="Layer 3"><path d="M436.76,144.88H516.6V305c-1.15,10.25-5.62,37.17-27.56,57.5-16.64,15.43-35.32,19.65-54.65,23.77-28.44,6.06-52.15,4.46-73.19,2-31.24-3.65-75.8-11.43-129.27-29.58V333.08c14.14.55,87.3,3.2,144.48-2.38,12.6-1.23,31.33-3.53,46.59-17.56a65.3,65.3,0,0,0,17.09-26.64Z" transform="translate(-82.85 -65.42)"/></g><g id="Layer_4" data-name="Layer 4"><path d="M522.78,154.39v77a87.54,87.54,0,0,1,19.61-14.8c15.56-8.57,30-10.17,48.83-11.22,35.51-2,53.26-3,69.86-.36,29.23,4.63,68.39,10.83,80.2,38.85,6.62,15.71,1.66,31.19.35,35.29-9.46,29.58-41.26,40.5-52,44.2-11.51,4-22.64,4.53-44.91,5.7-15.31.8-35.86,1.78-62.73-1.78a302.51,302.51,0,0,1-61.13-14.71,81.63,81.63,0,0,1-29.76,53.56,417.31,417.31,0,0,0,67,17.35,414.08,414.08,0,0,0,100.87,4.86c29.51-2.2,53.47-3.94,82.69-16.51,14.92-6.41,32.59-14.23,49.55-32.08a123,123,0,0,0,29.58-118,141.16,141.16,0,0,0-36-47.76,143,143,0,0,0-73.42-32.79,366.59,366.59,0,0,0-188.56,13.19Z" transform="translate(-82.85 -65.42)"/></g><g id="Layer_5" data-name="Layer 5"><path class="cls-2" d="M485,418.86c-31.57,1.41-58.46.94-79.13,0-22.43-1-50.49-2.36-87-8.55-18.72-3.18-34.94-7.46-67.37-16-22.58-6-33.16-9.38-44.55-18.18-8.44-6.52-23.15-17.88-24.95-36-1.73-17.4,9-35,26.38-46.33-23.12,9-69.89,29.09-103.37,59.88C92.67,365,83.91,376.19,82.94,390.51s6.32,25.56,8.91,29.42c10,14.95,25.51,22.31,53.11,30.3,36.59,10.59,67.92,14.58,97.31,17.47,13.25,1.3,14.07,1.19,74.49,5.34,0,0,85.64,5.89,135.69-5.7,6.34-1.47,21.38-5.07,21.62-10.69.11-2.47-2.66-4.6-4.89-6-.77-.53-7.77-5.42-7-10.19s9.36-9.28,21.38-7.37c4.76,1.12,9.15-2.16,9.63-6.06S490,418.72,485,418.86ZM266.21,453.91c-2.53,0-4.58-1.7-4.58-3.8s2.05-3.8,4.58-3.8,4.57,1.7,4.57,3.8S268.73,453.91,266.21,453.91Zm23.05-24.47c-3.12,0-5.65-1.94-5.65-4.34s2.53-4.33,5.65-4.33,5.64,1.94,5.64,4.33S292.37,429.44,289.26,429.44ZM309,460c-2.13,0-3.86-1.35-3.86-3s1.73-3,3.86-3,3.86,1.36,3.86,3S311.11,460,309,460Zm34.1-27a3.59,3.59,0,1,1,4-3.56A3.78,3.78,0,0,1,343.08,433ZM359,464c-2.66,0-4.81-1.86-4.81-4.16s2.15-4.15,4.81-4.15,4.81,1.86,4.81,4.15S361.66,464,359,464Zm23.7-18.29c-3.54,0-6.41-2.45-6.41-5.47s2.87-5.46,6.41-5.46,6.42,2.44,6.42,5.46S386.25,445.72,382.7,445.72Zm18.24,21.14c-5.08,0-9.21-3.56-9.21-8s4.13-8,9.21-8,9.21,3.57,9.21,8S406,466.86,400.94,466.86ZM415,444.17c-5.38,0-9.74-3.91-9.74-8.73s4.36-8.73,9.74-8.73,9.74,3.91,9.74,8.73S420.4,444.17,415,444.17Zm20.38,17.59c-4.76,0-8.62-3.12-8.62-6.95s3.86-7,8.62-7,8.61,3.12,8.61,7S440.15,461.76,435.4,461.76Z" transform="translate(-82.85 -65.42)"/></g><g id="Layer_6" data-name="Layer 6"><ellipse class="cls-2" cx="427.51" cy="361.82" rx="5.29" ry="4.46"/><ellipse class="cls-2" cx="423.24" cy="386.24" rx="11.82" ry="10.1"/><ellipse class="cls-2" cx="448.9" cy="393.9" rx="3.98" ry="3.62"/><ellipse class="cls-2" cx="459.92" cy="366.45" rx="12.56" ry="10.4"/><ellipse class="cls-2" cx="478.19" cy="386.89" rx="5.11" ry="4.1"/><ellipse class="cls-2" cx="490.13" cy="350.24" rx="5.29" ry="4.28"/><ellipse class="cls-2" cx="522.33" cy="348.57" rx="4.93" ry="3.92"/><ellipse class="cls-2" cx="504.21" cy="373.94" rx="13.19" ry="10.63"/><ellipse class="cls-2" cx="535.34" cy="373.7" rx="6.06" ry="4.93"/><ellipse class="cls-2" cx="551.91" cy="352.49" rx="12.53" ry="10.75"/><ellipse class="cls-2" cx="571.4" cy="369.1" rx="5.41" ry="4.6"/><ellipse class="cls-2" cx="579.65" cy="341.21" rx="4.99" ry="4.4"/><ellipse class="cls-2" cx="611.97" cy="335.21" rx="5.35" ry="4.34"/><ellipse class="cls-2" cx="599.79" cy="355.35" rx="14.08" ry="12.59"/><ellipse class="cls-2" cx="628.01" cy="358.91" rx="5.94" ry="5.11"/><ellipse class="cls-2" cx="641.85" cy="337.64" rx="12.42" ry="10.34"/><ellipse class="cls-2" cx="667.63" cy="326.59" rx="5.41" ry="4.28"/><circle class="cls-2" cx="667.63" cy="347.98" r="4.6"/><ellipse class="cls-2" cx="693.47" cy="333.29" rx="10.4" ry="9.25"/><ellipse class="cls-2" cx="712.6" cy="320.39" rx="4.99" ry="4.66"/><ellipse class="cls-2" cx="720.18" cy="333.99" rx="4.9" ry="4.66"/><ellipse class="cls-2" cx="737.69" cy="321.32" rx="7.8" ry="6.55"/><ellipse class="cls-2" cx="757.96" cy="309.4" rx="3.07" ry="2.92"/><ellipse class="cls-2" cx="755.51" cy="319.41" rx="5.12" ry="4.37"/><ellipse class="cls-2" cx="784.34" cy="309.4" rx="9" ry="7.78"/><ellipse class="cls-2" cx="805.16" cy="298.94" rx="3.39" ry="3"/><ellipse class="cls-2" cx="804.86" cy="309.71" rx="3.68" ry="3.22"/><ellipse class="cls-2" cx="823.16" cy="298.94" rx="8.5" ry="7.84"/><ellipse class="cls-2" cx="837.12" cy="289.88" rx="4.16" ry="3.33"/><circle class="cls-2" cx="852.5" cy="296.12" r="3.62"/><ellipse class="cls-2" cx="869.08" cy="285.1" rx="7.01" ry="6"/><ellipse class="cls-2" cx="890.52" cy="275.92" rx="6.12" ry="5.29"/><ellipse class="cls-2" cx="908.64" cy="271.64" rx="4.04" ry="3.62"/></g><g id="Layer_7" data-name="Layer 7"><text class="cls-3" transform="translate(956.69 230.42)">JO</text><text class="cls-4" transform="translate(1183.78 230.42)">COMPUTER</text></g><g id="Layer_8" data-name="Layer 8"><text class="cls-5" transform="translate(1223.05 286.55) scale(0.81 1)">Excellence, Achieving, Moving Forward</text></g></svg>