<svg xmlns="http://www.w3.org/2000/svg" viewBox="0 0 912.68 409.12"><defs><style>.cls-1{fill:#3c5caa;}.cls-2{fill:#ec2127;}</style></defs><g id="Layer_2" data-name="Layer 2"><g id="Layer_2-2" data-name="Layer 2"><path class="cls-1" d="M457.15,48.1c42.54-5.32,78.38-8,104.92-9.51,48-2.69,76-1.92,132-.38a424.74,424.74,0,0,1,89.43,14.17,105.37,105.37,0,0,1,37.83,19.45c5.84,4.75,10.52,8.63,13.07,15,7.51,18.62-10.67,40-12.88,42.57a200.91,200.91,0,0,0,56.08-34.7c16.37-14.37,27-24,26.62-36.59-.7-20.47-30.31-34.3-45.1-41.21C839,7.47,819.6,3.71,788.76,1.52A629.55,629.55,0,0,0,695.14,2,1043.14,1043.14,0,0,0,555.42,22C529.46,27.52,495.87,35.76,457.15,48.1Z"/></g><g id="Layer_3" data-name="Layer 3"><path d="M353.91,79.46h79.84V239.62c-1.15,10.25-5.62,37.17-27.56,57.51-16.64,15.42-35.32,19.64-54.66,23.76-28.44,6.06-52.14,4.47-73.18,2-31.24-3.64-75.8-11.43-129.27-29.57V267.66c14.14.55,87.29,3.2,144.47-2.37,12.61-1.23,31.34-3.54,46.6-17.57a65.27,65.27,0,0,0,17.09-26.63Z"/></g><g id="Layer_4" data-name="Layer 4"><path d="M439.93,89v77a87.38,87.38,0,0,1,19.6-14.79c15.56-8.58,30.05-10.18,48.84-11.23,35.5-2,53.26-3,69.86-.36,29.22,4.63,68.39,10.83,80.2,38.85,6.61,15.71,1.66,31.2.35,35.29-9.46,29.58-41.26,40.5-52,44.2-11.51,3.95-22.65,4.54-44.91,5.7-15.31.8-35.86,1.78-62.73-1.78A302.39,302.39,0,0,1,438,247.14a81.58,81.58,0,0,1-29.76,53.55,417.31,417.31,0,0,0,67,17.35,414.08,414.08,0,0,0,100.87,4.86c29.51-2.19,53.47-3.93,82.69-16.5,14.92-6.42,32.59-14.24,49.55-32.08a123,123,0,0,0,29.58-118,141.17,141.17,0,0,0-36-47.77C673.09,83.81,642,77.64,628.48,75.78A366.56,366.56,0,0,0,439.93,89Z"/></g><g id="Layer_5" data-name="Layer 5"><path class="cls-2" d="M402.15,353.44c-31.57,1.41-58.46.94-79.13,0-22.43-1-50.49-2.36-87-8.55-18.72-3.18-34.94-7.46-67.37-16-22.58-6-33.16-9.38-44.55-18.18-8.44-6.52-23.15-17.88-24.95-36-1.73-17.4,9-35,26.38-46.33-23.12,9-69.89,29.09-103.37,59.88C9.82,299.59,1.06,310.77.09,325.09S6.41,350.65,9,354.51c10,14.95,25.51,22.31,53.11,30.3C98.7,395.4,130,399.39,159.42,402.28c13.25,1.3,14.07,1.19,74.49,5.34,0,0,85.64,5.89,135.69-5.7,6.34-1.47,21.38-5.07,21.62-10.69.11-2.47-2.66-4.6-4.89-6-.77-.53-7.77-5.42-7-10.19s9.36-9.28,21.38-7.37c4.76,1.12,9.15-2.16,9.63-6.06S407.18,353.3,402.15,353.44ZM183.36,388.49c-2.53,0-4.58-1.7-4.58-3.8s2.05-3.8,4.58-3.8,4.57,1.7,4.57,3.8S185.88,388.49,183.36,388.49Zm23-24.47c-3.12,0-5.65-1.94-5.65-4.34s2.53-4.33,5.65-4.33,5.64,1.94,5.64,4.33S209.52,364,206.41,364Zm19.72,30.53c-2.13,0-3.86-1.35-3.86-3s1.73-3,3.86-3,3.86,1.36,3.86,3S228.26,394.55,226.13,394.55Zm34.1-27a3.59,3.59,0,1,1,4-3.56A3.78,3.78,0,0,1,260.23,367.58Zm15.92,31c-2.66,0-4.81-1.86-4.81-4.16s2.15-4.15,4.81-4.15,4.81,1.86,4.81,4.15S278.81,398.59,276.15,398.59Zm23.7-18.29c-3.54,0-6.41-2.45-6.41-5.47s2.87-5.46,6.41-5.46,6.42,2.44,6.42,5.46S303.4,380.3,299.85,380.3Zm18.24,21.14c-5.08,0-9.21-3.56-9.21-8s4.13-8,9.21-8,9.21,3.57,9.21,8S323.18,401.44,318.09,401.44Zm14.08-22.69c-5.38,0-9.74-3.91-9.74-8.73s4.36-8.73,9.74-8.73,9.74,3.91,9.74,8.73S337.55,378.75,332.17,378.75Zm20.38,17.59c-4.76,0-8.62-3.12-8.62-6.95s3.86-7,8.62-7,8.61,3.12,8.61,7S357.3,396.34,352.55,396.34Z"/></g><g id="Layer_6" data-name="Layer 6"><ellipse class="cls-2" cx="427.51" cy="361.82" rx="5.29" ry="4.46"/><ellipse class="cls-2" cx="423.24" cy="386.24" rx="11.82" ry="10.1"/><ellipse class="cls-2" cx="448.9" cy="393.9" rx="3.98" ry="3.62"/><ellipse class="cls-2" cx="459.92" cy="366.45" rx="12.56" ry="10.4"/><ellipse class="cls-2" cx="478.19" cy="386.89" rx="5.11" ry="4.1"/><ellipse class="cls-2" cx="490.13" cy="350.24" rx="5.29" ry="4.28"/><ellipse class="cls-2" cx="522.33" cy="348.57" rx="4.93" ry="3.92"/><ellipse class="cls-2" cx="504.21" cy="373.94" rx="13.19" ry="10.63"/><ellipse class="cls-2" cx="535.34" cy="373.7" rx="6.06" ry="4.93"/><ellipse class="cls-2" cx="551.91" cy="352.49" rx="12.53" ry="10.75"/><ellipse class="cls-2" cx="571.4" cy="369.1" rx="5.41" ry="4.6"/><ellipse class="cls-2" cx="579.65" cy="341.21" rx="4.99" ry="4.4"/><ellipse class="cls-2" cx="611.97" cy="335.21" rx="5.35" ry="4.34"/><ellipse class="cls-2" cx="599.79" cy="355.35" rx="14.08" ry="12.59"/><ellipse class="cls-2" cx="628.01" cy="358.91" rx="5.94" ry="5.11"/><ellipse class="cls-2" cx="641.85" cy="337.64" rx="12.42" ry="10.34"/><ellipse class="cls-2" cx="667.63" cy="326.59" rx="5.41" ry="4.28"/><circle class="cls-2" cx="667.63" cy="347.98" r="4.6"/><ellipse class="cls-2" cx="693.47" cy="333.29" rx="10.4" ry="9.25"/><ellipse class="cls-2" cx="712.6" cy="320.39" rx="4.99" ry="4.66"/><ellipse class="cls-2" cx="720.18" cy="333.99" rx="4.9" ry="4.66"/><ellipse class="cls-2" cx="737.69" cy="321.32" rx="7.8" ry="6.55"/><ellipse class="cls-2" cx="757.96" cy="309.4" rx="3.07" ry="2.92"/><ellipse class="cls-2" cx="755.51" cy="319.41" rx="5.12" ry="4.37"/><ellipse class="cls-2" cx="784.34" cy="309.4" rx="9" ry="7.78"/><ellipse class="cls-2" cx="805.16" cy="298.94" rx="3.39" ry="3"/><ellipse class="cls-2" cx="804.86" cy="309.71" rx="3.68" ry="3.22"/><ellipse class="cls-2" cx="823.16" cy="298.94" rx="8.5" ry="7.84"/><ellipse class="cls-2" cx="837.12" cy="289.88" rx="4.16" ry="3.33"/><circle class="cls-2" cx="852.5" cy="296.12" r="3.62"/><ellipse class="cls-2" cx="869.08" cy="285.1" rx="7.01" ry="6"/><ellipse class="cls-2" cx="890.52" cy="275.92" rx="6.12" ry="5.29"/><ellipse class="cls-2" cx="908.64" cy="271.64" rx="4.04" ry="3.62"/></g></g></svg>